<?xml version="1.0" standalone="no"?>
<!DOCTYPE svg PUBLIC "-//W3C//DTD SVG 20010904//EN"
 "http://www.w3.org/TR/2001/REC-SVG-20010904/DTD/svg10.dtd">
<svg version="1.0" xmlns="http://www.w3.org/2000/svg"
 width="200.000000pt" height="200.000000pt" viewBox="0 0 200.000000 200.000000"
 preserveAspectRatio="xMidYMid meet">

<g transform="translate(0.000000,200.000000) scale(0.100000,-0.100000)"
fill="#000000" stroke="none">
<path d="M985 1532 l-80 -48 -3 -46 -3 -46 -42 23 -42 23 -82 -46 -83 -47 0
-315 0 -315 157 -90 c86 -49 164 -91 172 -93 9 -1 51 18 94 43 l77 46 0 45 c0
25 3 44 8 42 4 -2 23 -12 43 -22 l37 -19 75 42 c41 22 80 47 86 55 8 9 11 47
9 107 l-3 94 -77 45 -77 45 -1 211 0 210 -87 50 c-48 27 -89 50 -92 51 -4 1
-42 -19 -86 -45z m156 -28 l62 -37 -59 -33 c-32 -19 -63 -34 -67 -34 -9 0 -92
46 -115 63 -10 8 0 18 40 43 29 19 58 34 65 34 7 0 40 -16 74 -36z m-141 -98
l55 -32 5 -212 5 -212 75 -43 75 -43 3 -78 3 -78 -33 19 c-28 16 -33 26 -36
60 -3 41 -5 43 -84 89 l-80 47 4 205 4 204 -33 22 c-26 17 -33 28 -33 54 0 17
3 32 8 32 4 -1 32 -16 62 -34z m220 -155 l0 -189 -61 -36 c-33 -20 -62 -36
-65 -36 -2 0 -4 85 -4 189 l0 189 58 35 c31 19 60 36 65 36 4 1 7 -84 7 -188z
m-332 113 l64 -36 -63 -36 -63 -35 -54 29 c-79 43 -80 47 -20 82 29 17 57 31
62 31 5 1 38 -15 74 -35z m-139 -99 l61 -36 0 -209 0 -208 80 -46 80 -47 0
-74 c0 -41 -2 -75 -4 -75 -2 0 -67 36 -145 81 l-141 81 0 284 c0 156 2 284 4
284 3 0 32 -16 65 -35z m214 -166 l-6 -186 -58 -32 -59 -32 0 190 0 190 58 34
c31 19 60 32 63 28 4 -3 5 -90 2 -192z m331 -101 c31 -18 56 -35 56 -39 0 -4
-25 -22 -57 -40 l-56 -32 -51 28 c-84 46 -84 45 -19 82 32 18 61 33 65 33 3 0
31 -14 62 -32z m84 -144 l-3 -76 -62 -35 -63 -35 0 76 0 75 58 35 c31 19 61
35 65 35 4 1 7 -33 5 -75z m-337 4 c33 -18 59 -36 59 -39 0 -4 -26 -22 -57
-39 l-57 -33 -63 34 c-35 19 -63 36 -63 39 0 5 110 69 119 70 2 0 30 -15 62
-32z m79 -145 l0 -78 -60 -33 -60 -33 0 75 0 74 58 36 c31 19 58 36 60 36 1 0
2 -35 2 -77z"/>
</g>
</svg>
